# AST/ASF file generated using VICON BodyLanguage
# -----------------------------------------------
:version 1.10
:name VICON
:units
  mass 1.0
  length 0.45
  angle deg
:documentation
   .ast/.asf automatically generated from VICON data using
   VICON BodyBuilder and BodyLanguage model FoxedUp or BRILLIANT.MOD
:root
   order TX TY TZ RX RY RZ
   axis XYZ
   position 0 0 0  
   orientation 0 0 0 
:bonedata
  begin
     id 1 
     name lhipjoint
     direction 0.440178 -0.822639 0.359871 
     length 2.53113 
     axis 0 0 0  XYZ
  end
  begin
     id 2 
     name lfemur
     direction 0.34202 -0.939693 0  
     length 7.88132  
     axis 0 0 20  XYZ
    dof rx ry rz
    limits (-160.0 20.0)
           (-70.0 70.0)
           (-60.0 70.0)
  end
  begin
     id 3 
     name ltibia
     direction 0.34202 -0.939693 0   
     length 8.43783   
     axis 0 0 20   XYZ
    dof rx
    limits (-10.0 170.0)
  end
  begin
     id 4 
     name lfoot
     direction 0.0886351 -0.243523 0.965837   
     length 2.63414   
     axis -90 7.62852e-016 20   XYZ
    dof rx rz
    limits (-45.0 90.0)
           (-70.0 20.0)
  end
  begin
     id 5 
     name ltoes
     direction 1.53703e-011 -4.21717e-011 1   
     length 1.31427   
     axis -90 7.62852e-016 20   XYZ
    dof rx
    limits (-90.0 20.0)
  end
  begin
     id 6 
     name rhipjoint
     direction -0.399779 -0.839773 0.367367   
     length 2.47948  
     axis 0 0 0  XYZ 
  end
  begin
     id 7 
     name rfemur
     direction -0.34202 -0.939693 0   
     length 7.74806   
     axis 0 0 -20   XYZ
    dof rx ry rz
    limits (-160.0 20.0)
           (-70.0 70.0)
           (-70.0 60.0)
  end
  begin
     id 8 
     name rtibia
     direction -0.34202 -0.939693 0   
     length 8.74432   
     axis 0 0 -20   XYZ
    dof rx
    limits (-10.0 170.0)
 end
 begin
     id 9 
     name rfoot
     direction -0.108514 -0.298139 0.948334   
     length 2.66102  
     axis -90 -7.62852e-016 -20   XYZ
    dof rx rz
    limits (-45.0 90.0)
           (-20.0 70.0)
  end
  begin
     id 10 
     name rtoes
     direction -1.53392e-011 -4.22077e-011 1   
     length 1.31983   
     axis -90 -7.62852e-016 -20   XYZ
    dof rx
    limits (-90.0 20.0)
  end
  begin
     id 11 
     name lowerback
     direction 0.0113257 0.999866 0.0118602   
     length 2.58694   
     axis 0 0 0   XYZ
    dof rx ry rz
    limits (-20.0 45.0)
           (-30.0 30.0)
           (-30.0 30.0)
  end
  begin
     id 12 
     name upperback
     direction -0.0164747 0.995193 -0.0965375   
     length 2.52368   
     axis 0 0 0   XYZ
    dof rx ry rz
    limits (-20.0 45.0)
           (-30.0 30.0)
           (-30.0 30.0)
  end
  begin
     id 13 
     name thorax
     direction -0.0194301 0.99433 -0.104552   
     length 2.56099   
     axis 0 0 0   XYZ
    dof rx ry rz
    limits (-20.0 45.0)
           (-30.0 30.0)
           (-30.0 30.0)
  end
  begin
     id 14 
     name lowerneck
     direction 0.0148543 0.995587 -0.092657   
     length 1.71582   
     axis 0 0 0   XYZ
    dof rx ry rz
    limits (-20.0 45.0)
           (-30.0 30.0)
           (-30.0 30.0)
  end
  begin
     id 15 
     name upperneck
     direction -0.0135467 0.993656 -0.111639   
     length 1.68937   
     axis 0 0 0   XYZ
    dof rx ry rz
    limits (-20.0 45.0)
           (-30.0 30.0)
           (-30.0 30.0)
  end
  begin
     id 16
     name head
     direction -0.00615349 0.999547 -0.029448  
     length 1.7462  
     axis 0 0 0   XYZ
    dof rx ry rz
    limits (-20.0 45.0)
           (-30.0 30.0)
           (-30.0 30.0)
  end
  begin
     id 17 
     name lclavicle
     direction 0.988267 0.149885 0.0293713  
     length 4.47222  
     axis 0 0 0   XYZ
    dof ry rz
    limits (-20.0 10.0)
           (0.0 20.0)
  end
  begin
     id 18 
     name lhumerus
     direction 1 -4.48986e-011 -1.14833e-027   
     length 5.37148   
     axis 180 -30 -90   XYZ
    dof rx ry rz
    limits (-60.0 90.0)
           (-90.0 90.0)
           (-90.0 90.0)
  end
  begin
     id 19
     name lradius
     direction 0.999998 0.00170963 -0.000987055   
     length 3.94212   
     axis 180 -30 -90   XYZ
    dof rx
    limits (-10.0 170.0)
  end
  begin
     id 20
     name lwrist
     direction 0.999998 7.53149e-005 -0.00194706   
     length 1.97106   
     axis 4.65056e-015 90 90   XYZ
    dof ry
    limits (-180.0 0.0)
 end
  begin
     id 21 
     name lhand
     direction 1 -4.48973e-011 -1.31746e-026   
     length 1.17917   
     axis 8.4065e-015 90 90   XYZ
    dof rx rz
    limits (-90.0 90.0)
           (-45.0 45.0)
  end
  begin
     id 22 
     name lfingers
     direction 1 -4.49107e-011 -2.63492e-026   
     length 0.950679   
     axis 1.6813e-014 90 90   XYZ
    dof rx
    limits (0.0 90.0)
  end
  begin
     id 23
     name lthumb
     direction 0.707107 -6.35048e-011 0.707107   
     length 1.36499   
     axis -90 45 2.85299e-015   XYZ
    dof rx rz
    limits (-45.0 45.0)
           (-45.0 45.0)
  end
  begin
     id 24 
     name rclavicle
     direction -0.996699 0.0642895 -0.0495725   
     length 4.62611  
     axis 0 0 0   XYZ 
    dof ry rz
    limits (-10.0 20.0)
           (-20.0 0.0)
  end
  begin
     id 25 
     name rhumerus
     direction -1 -4.48919e-011 -2.41059e-027  
     length 5.4981   
     axis 180 30 90   XYZ
    dof rx ry rz
    limits (-90.0 60.0)
           (-90.0 90.0)
           (-90.0 90.0)
  end
  begin
     id 26 
     name rradius
     direction -0.999999 0.00118101 -0.000681858   
     length 3.48381   
     axis 180 30 90   XYZ
    dof rx
    limits (-10.0 170.0)
  end
  begin
     id 27 
     name rwrist
     direction -0.999999 0.000321823 -0.00132288   
     length 1.7419   
     axis 4.65056e-015 -90 -90   XYZ
    dof ry
    limits (-180.0 0.0)
  end
  begin
     id 28
     name rhand
     direction -1 -4.49022e-011 -1.31746e-026   
     length 1.34932   
     axis 8.4065e-015 -90 -90   XYZ
    dof rx rz
    limits (-90.0 90.0)
           (-45.0 45.0)
  end
  begin
     id 29
     name rfingers
     direction -1 -4.49178e-011 -2.63492e-026   
     length 1.08785   
     axis 1.6813e-014 -90 -90   XYZ
    dof rx
    limits (0.0 90.0)
  end
  begin
     id 30
     name rthumb
     direction -0.707107 -6.34713e-011 0.707107   
     length 1.56195   
     axis -90 -45 -2.85299e-015   XYZ
    dof rx rz
    limits (-45.0 45.0)
           (-45.0 45.0)
  end
:hierarchy
  begin
    root lhipjoint rhipjoint lowerback
    lhipjoint lfemur
    lfemur ltibia
    ltibia lfoot
    lfoot ltoes
    rhipjoint rfemur
    rfemur rtibia
    rtibia rfoot
    rfoot rtoes
    lowerback upperback
    upperback thorax
    thorax lowerneck lclavicle rclavicle
    lowerneck upperneck
    upperneck head
    lclavicle lhumerus
    lhumerus lradius
    lradius lwrist
    lwrist lhand lthumb
    lhand lfingers
    rclavicle rhumerus
    rhumerus rradius
    rradius rwrist
    rwrist rhand rthumb
    rhand rfingers
  end

#!OML:ASF X:\für Bonn\!DataBase\2005_08_10_Bjorn_Final\c3d\bjorn.ASF
:FULLY-SPECIFIED
:DEGREES
1
root -36.0101 18.9946 3.33752 -166.686 -253.179 -173.415
lowerback -6.25335 1.59404 -6.59823
upperback 6.75036 3.53526 -4.57824
thorax 10.712 1.49673 -0.685507
lowerneck -0.63594 -4.61206 -0.8043
upperneck 17.0022 -6.91921 7.22511
head 5.50264 -2.82962 2.0592
rclavicle 1.55052e-014 3.18055e-015
rhumerus -33.104 -8.89284 -94.3242
rradius 36.897
rwrist -1.6842
rhand -13.7932 16.032
rfingers 7.12502
rthumb 12.3285 -13.5845
lclavicle 1.55052e-014 3.18055e-015
lhumerus -30.8747 -6.72278 86.8949
lradius 33.5125
lwrist -24.1942
lhand -20.3084 -5.87668
lfingers 7.12502
lthumb 6.04204 24.0172
rfemur -13.0943 -8.22551 16.7351
rtibia 36.477
rfoot -24.5451 10.9729
rtoes -10.8278
lfemur -14.8505 11.9618 -22.6777
ltibia 33.8553
lfoot -17.7219 -14.6928
ltoes 0.393253
2
root -35.9869 18.9895 3.34574 -166.803 -252.87 -173.482
lowerback -6.12155 1.52891 -6.72881
upperback 6.82142 3.4642 -4.62955
thorax 10.7138 1.4564 -0.683514
lowerneck -0.748617 -4.5999 -0.883887
upperneck 16.9725 -6.92852 7.38492
head 5.52092 -2.82958 2.11891
rclavicle 2.06736e-014 -2.06736e-014
rhumerus -33.2207 -8.41206 -94.7006
rradius 36.7933
rwrist -1.97233
rhand -13.6639 15.9304
rfingers 7.12502
rthumb 12.4532 -13.6786
lclavicle 2.06736e-014 -2.06736e-014
lhumerus -30.4737 -6.51944 87.0433
lradius 33.7496
lwrist -23.9188
lhand -21.1814 -5.92112
lfingers 7.12502
lthumb 5.19924 23.9951
rfemur -13.1846 -8.07647 16.6783
rtibia 36.8298
rfoot -24.465 11.0533
rtoes -10.6534
lfemur -14.6686 12.2043 -22.6864
ltibia 33.821
lfoot -17.8844 -14.6125
ltoes 0.0580124
3
root -35.9651 18.9846 3.35416 -166.946 -252.569 -173.59
lowerback -5.97719 1.45433 -6.83726
upperback 6.87268 3.3743 -4.68568
thorax 10.6876 1.40962 -0.701731
lowerneck -0.809034 -4.56557 -0.961009
upperneck 16.9159 -6.90889 7.57731
head 5.5215 -2.81496 2.19144
rclavicle -2.14687e-014 3.65764e-014
rhumerus -33.3505 -8.02738 -95.0604
rradius 36.6602
rwrist -2.14534
rhand -13.52 15.7253
rfingers 7.12502
rthumb 12.5919 -13.8752
lclavicle -2.14687e-014 3.65764e-014
lhumerus -30.1361 -6.36977 87.1803
lradius 34.08
lwrist -23.449
lhand -22.0337 -5.95999
lfingers 7.12502
lthumb 4.37624 23.9748
rfemur -13.3143 -7.90604 16.6432
rtibia 37.2191
rfoot -24.3415 11.1615
rtoes -10.1858
lfemur -14.5068 12.3913 -22.6813
ltibia 33.7872
lfoot -18.0153 -14.4847
ltoes -0.143208
4
root -35.942 18.9789 3.36248 -166.985 -252.247 -173.579
lowerback -5.84316 1.3676 -6.99817
upperback 6.94561 3.27543 -4.72603
thorax 10.6898 1.35275 -0.674984
lowerneck -0.916393 -4.51766 -1.07658
upperneck 16.8815 -6.87093 7.76595
head 5.53716 -2.79242 2.26906
rclavicle -6.75868e-015 1.11319e-014
rhumerus -33.4349 -7.67438 -95.3815
rradius 36.5253
rwrist -2.34514
rhand -13.3877 15.5054
rfingers 7.12502
rthumb 12.7194 -14.0872
lclavicle -6.75868e-015 1.11319e-014
lhumerus -29.7351 -6.15191 87.3357
lradius 34.3864
lwrist -22.9747
lhand -22.8286 -5.98005
lfingers 7.12502
lthumb 3.60862 23.9691
rfemur -13.4501 -7.83595 16.5503
rtibia 37.6438
rfoot -24.2281 11.3474
rtoes -9.98871
lfemur -14.3271 12.5459 -22.7167
ltibia 33.7591
lfoot -18.1392 -14.3242
ltoes -0.183687
